<svg xmlns="http://www.w3.org/2000/svg" width="67.6" height="49.08" viewBox="0 0 67.6 49.08">
  <g id="Layer_2" data-name="Layer 2">
    <g id="Layer_1-2" data-name="Layer 1">
      <g>
        <path d="M12.45.65a4.63,4.63,0,0,0-5,4.06L7.21,6.58l0,0L5.32,6.34A4.65,4.65,0,0,0,.06,10a4.5,4.5,0,0,0,3.83,5.19l2.1.29,7.46,1a1.46,1.46,0,0,0,1.65-1.25l1-7.46.29-2.1A4.49,4.49,0,0,0,12.45.65Z" style="fill: #0e0e0f"/>
        <path d="M67.5,8.66A4.54,4.54,0,0,0,62,5.32l-1.89.44s0,0,0,0l-.36-1.91A4.53,4.53,0,0,0,54.39.09a4.87,4.87,0,0,0-3.78,5.62L51,7.85l1.43,7.62a1.43,1.43,0,0,0,1.75,1.14l7.55-1.74,2.12-.5A4.87,4.87,0,0,0,67.5,8.66Z" style="fill: #0e0e0f"/>
      </g>
      <path d="M44,37.89a9.45,9.45,0,0,1-9.69,9.19,9.45,9.45,0,0,1-9.69-9.19" style="fill: none;stroke: #1d1d1b;stroke-linecap: round;stroke-miterlimit: 10;stroke-width: 4px"/>
    </g>
  </g>
</svg>
