<svg xmlns="http://www.w3.org/2000/svg" width="79.57" height="57.62" viewBox="0 0 79.57 57.62">
  <g id="Layer_2" data-name="Layer 2">
    <g id="Layer_1-2" data-name="Layer 1">
      <g>
        <g>
          <path d="M20.57,2.38c-2.34,1.28-6.8,2-11,1.68C4.29,3.73,2.16,2.13,2,2" style="fill: none;stroke: #1d1d1b;stroke-linecap: round;stroke-miterlimit: 10;stroke-width: 4px"/>
          <path d="M77.57,2.38c-2.34,1.28-6.8,2-11,1.68C61.29,3.73,59.16,2.13,59,2" style="fill: none;stroke: #1d1d1b;stroke-linecap: round;stroke-miterlimit: 10;stroke-width: 4px"/>
        </g>
        <g>
          <path d="M29.24,31.15H50.79a2.08,2.08,0,0,1,2.08,2.08v.89A12.85,12.85,0,0,1,40,47h0A12.85,12.85,0,0,1,27.17,34.12v-.89a2.08,2.08,0,0,1,2.08-2.08Z" style="fill: #0e0e0f"/>
          <path d="M35.48,43.62H44.1a1.19,1.19,0,0,1,1.19,1.19v8.95a3.86,3.86,0,0,1-3.86,3.86H38.15a3.86,3.86,0,0,1-3.86-3.86V44.81A1.19,1.19,0,0,1,35.48,43.62Z" style="fill: #ed6855"/>
        </g>
      </g>
    </g>
  </g>
</svg>
