<svg xmlns="http://www.w3.org/2000/svg" width="60.38" height="56" viewBox="0 0 60.38 56">
  <g id="Layer_2" data-name="Layer 2">
    <g id="Layer_1-2" data-name="Layer 1">
      <g>
        <g>
          <g>
            <path d="M52.26.46l2.1,4.25a.81.81,0,0,0,.62.45l4.69.69a.82.82,0,0,1,.46,1.4l-3.4,3.31a.82.82,0,0,0-.23.73L57.3,16a.82.82,0,0,1-1.19.86L51.9,14.62a.85.85,0,0,0-.76,0l-4.2,2.21A.82.82,0,0,1,45.75,16l.8-4.68a.83.83,0,0,0-.24-.73l-3.4-3.31a.82.82,0,0,1,.46-1.4l4.7-.69a.79.79,0,0,0,.61-.45L50.79.46A.82.82,0,0,1,52.26.46Z" style="fill: #0e0e0f"/>
            <path d="M9.59.46l2.1,4.25a.82.82,0,0,0,.62.45l4.7.69a.82.82,0,0,1,.45,1.4l-3.39,3.31a.8.8,0,0,0-.24.73l.8,4.68a.82.82,0,0,1-1.19.86l-4.2-2.21a.87.87,0,0,0-.77,0l-4.2,2.21A.82.82,0,0,1,3.08,16l.8-4.68a.82.82,0,0,0-.23-.73L.25,7.25A.82.82,0,0,1,.7,5.85l4.7-.69A.81.81,0,0,0,6,4.71L8.12.46A.82.82,0,0,1,9.59.46Z" style="fill: #0e0e0f"/>
          </g>
          <path d="M20.71,33.18H38.65a1.73,1.73,0,0,1,1.73,1.73V45.3A10.7,10.7,0,0,1,29.68,56h0A10.7,10.7,0,0,1,19,45.3V34.91a1.73,1.73,0,0,1,1.73-1.73Z" style="fill: #0e0e0f"/>
        </g>
        <ellipse cx="29.88" cy="51" rx="6.5" ry="3" style="fill: #ed6855"/>
      </g>
    </g>
  </g>
</svg>
